<svg xmlns="http://www.w3.org/2000/svg" width="15" height="12" viewBox="0 0 15 12"><g><g><path fill="#fff" d="M14.785 6.014a.502.502 0 0 0 .154-.368.475.475 0 0 0-.154-.36L9.653.155A.475.475 0 0 0 9.293 0a.502.502 0 0 0-.367.154.488.488 0 0 0-.146.36c0 .142.049.264.146.367l4.26 4.252H.739a.502.502 0 0 0-.368.154.488.488 0 0 0-.145.359c0 .143.048.265.145.368a.517.517 0 0 0 .368.145h12.447l-4.26 4.26a.488.488 0 0 0-.146.36c0 .142.049.265.146.368a.517.517 0 0 0 .367.145.488.488 0 0 0 .36-.145z"/></g></g></svg>